<svg width="457" height="373" viewBox="0 0 457 373" fill="none" xmlns="http://www.w3.org/2000/svg">
<path fill-rule="evenodd" clip-rule="evenodd" d="M387.762 324.629C385.63 326.366 383.428 328.075 381.218 329.711C376.164 333.455 371.456 337.551 366.668 341.628C362.336 345.316 357.697 348.619 353.187 352.08C348.9 355.369 345.084 359.247 341.073 362.872C343.686 364.397 346.527 366.646 349.683 365.922C352.245 365.332 355.271 363.105 357.481 361.659C362.626 358.292 366.928 353.649 371.226 349.307C375.44 345.051 379.465 340.895 383.443 336.479C387.916 331.514 391.079 326.782 394.073 320.833C391.793 319.322 389.291 323.385 387.762 324.629ZM349.528 336.616C346.523 337.59 343.408 338.016 340.412 338.937C337.805 339.738 335.573 342.265 333.93 344.364C332.851 345.743 332.144 347.365 331.179 348.849C330.634 349.689 328.548 351.666 328.574 352.487C328.608 353.547 331.674 356.206 332.395 357.02C333.732 358.529 335.106 360.003 336.505 361.454C338.56 357.135 343.477 353.509 347.147 350.547C350.954 347.473 354.947 344.43 358.89 341.387C367.596 334.664 375.791 328.029 385.193 322.213C384.627 320.856 353.024 335.483 349.528 336.616ZM334.978 334.082C332.109 337.642 327.752 341.662 326.819 346.328C328.627 344.244 330.226 341.953 331.976 339.816C332.737 338.887 333.529 338.059 334.384 337.215C335.95 335.668 336.447 335.807 334.978 334.082ZM261.059 136.916C255.322 137.345 249.524 138.354 243.873 139.596L243.612 139.595C244.027 139.595 244.435 139.596 244.844 139.597C244.519 139.597 244.193 139.597 243.87 139.596C242.506 139.896 241.149 140.209 239.804 140.531C226.553 143.702 213.384 150.017 203.816 159.846L203.495 160.179C203.049 160.887 202.01 161.876 202.217 162.828C201.569 162.421 201.364 162.07 201.428 161.753C201.338 161.885 201.257 162.027 201.189 162.182C203.9 163.885 205.633 167.796 207.423 170.436C209.442 173.412 211.703 176.21 213.637 179.25C217.839 185.857 221.869 192.681 225.646 199.542C232.181 211.417 240.229 222.688 247.417 234.18C254.593 245.653 261.441 256.96 268.615 268.418C276.252 280.615 285.012 292.106 292.901 303.997C297.605 311.086 302.978 317.737 307.797 324.759C312.357 331.406 316.852 338.052 321.497 344.639C323.947 337.763 328.724 331.858 335.324 328.379C326.336 315.631 317.735 302.712 309.823 289.256C303.006 277.663 296.995 266.033 290.665 254.298C284.429 242.738 278.276 231.167 271.974 219.616C268.827 213.847 266.176 207.785 263.476 201.758C260.603 195.345 259.396 188.203 256.285 181.911C254.832 178.969 252.862 175.573 253.055 172.165C253.238 168.951 255.472 165.67 257.19 163.08C258.211 161.543 260.167 157.269 262.266 157.248C266.055 157.21 261.565 164.943 260.972 166.464C258.242 173.473 262.043 179.534 264.901 185.812C267.693 191.944 269.912 198.378 272.882 204.437C274.129 206.981 275.395 209.464 276.53 212.045C276.922 212.936 277.999 215.863 278.996 216.153C279.566 216.319 282.394 214.49 282.83 214.212C285.043 212.801 288.06 210.349 289.388 208.064C290.703 205.803 290.17 201.944 289.567 199.526C287.816 192.502 284.13 185.822 281.232 179.233C278.191 172.317 274.999 165.311 272.378 158.224C270.961 154.395 269.686 150.531 268.137 146.749C267.257 144.599 266.336 142.466 265.358 140.359C264.114 137.681 264.02 136.694 261.059 136.916ZM159.422 220.508C156.661 221.842 155.929 222.548 155.366 225.541C154.781 228.652 155.04 231.722 154.719 234.849L154.718 234.855L154.716 234.876L154.715 234.884L154.592 236.064C154.117 240.519 153.576 244.97 153.303 249.373C152.914 255.654 155.217 261.516 157.947 266.995C159.149 269.407 160.374 271.751 162.197 273.771C163.317 275.012 164.614 276.064 165.9 277.123C167.526 278.462 167.774 279.289 168.835 277.474C170.139 275.243 169.099 271.623 168.729 269.217C168.146 265.423 167.844 261.802 167.892 257.948C168.038 256.21 168.142 254.469 168.24 252.728L168.24 252.725C168.479 248.471 168.683 244.216 169.383 239.995C169.635 238.477 169.939 236.966 170.316 235.475C170.659 234.114 172.056 231.645 171.944 230.31C171.831 228.963 169.733 226.45 169.338 224.211C169.111 222.928 169.108 221.567 169.037 220.27C168.933 218.39 169.383 217.935 167.755 217.412C165.809 216.786 161.092 219.701 159.422 220.508ZM130.909 205.79C130.169 208.034 127.162 210.268 125.608 211.94C121.366 216.506 118.08 221.146 114.751 226.373C109.407 234.757 104.538 244.528 102.308 254.341C96.619 255.912 98.5987 244.215 99.3797 241.952C101.297 236.397 103.531 230.937 106.439 225.829C109.107 221.143 112.75 216.067 116.475 212.163C118.015 210.549 119.83 208.581 121.508 207.08C122.988 205.755 126.311 202.533 128.165 202.228C130.33 201.872 131.66 203.511 130.909 205.79ZM154.716 234.876L154.709 234.972L154.713 234.924L154.715 234.884L154.716 234.876ZM334.126 171.517C337.445 177.67 339.064 185.27 340.26 192.113C341.343 198.314 342.202 205.087 342.038 211.383C342.2 212.464 342.265 213.55 342.279 214.639L342.255 215.626C342.274 214.824 342.293 214.022 342.313 213.221C342.639 214.016 342.679 214.803 342.28 215.579C342.263 217.165 342.167 218.756 342.133 220.343C342.083 222.639 342.571 227.328 341.005 229.302C338.616 232.314 337.902 226.915 337.754 225.439C337.383 221.745 337.33 218.008 337.037 214.306C336.012 201.332 334.334 186.995 329.341 174.91C328.867 173.763 328.122 171.307 327.212 170.494C326.567 169.919 326.072 170.55 325.329 169.545C324.555 168.497 323.458 162.398 324.794 161.216C327.594 158.737 332.977 169.387 334.126 171.517ZM106.79 201.741C110.764 204.51 96.1793 211.264 94.2239 212.504C90.7283 214.722 87.2443 216.873 83.8277 219.218C80.2388 221.68 76.8425 224.63 73.1527 226.876C68.5284 221.436 81.5495 213.513 85.3274 211.484C89.1652 209.422 92.8179 207.074 96.8052 205.326C98.7114 204.49 104.776 200.337 106.79 201.741ZM219.877 203.742C219.095 203.864 217.582 204.809 216.825 205.075C209.369 207.697 200.768 208.939 193.897 212.66C189.258 212.706 184.364 215.475 179.915 216.753C178.148 217.26 174.61 217.763 173.125 218.773C171.461 219.905 172.255 224.579 172.255 226.643C175.15 223.932 178.545 224.488 182.375 224.325C187.763 224.096 193.115 223.564 198.473 223.256C204.156 222.93 209.709 222.048 215.419 222.071C221.042 222.093 226.545 220.919 232.081 222.001C231.116 218.211 227.642 214.153 225.53 210.912C224.229 208.915 223.274 206.374 221.795 204.523C220.672 203.117 221.463 203.495 219.877 203.742ZM182.056 224.317L180.141 224.349C180.771 223.837 181.412 223.957 182.056 224.317ZM351.754 178.342C354.491 186.14 357.019 193.75 357.187 202.11C357.245 205.006 357.326 209.576 356.098 212.244C354.056 216.684 352.217 212.756 352.299 209.708C351.627 202.044 350.713 194.332 349.057 186.808C348.287 183.31 346.587 178.888 347.2 175.262C348.104 169.929 351.145 176.607 351.754 178.342ZM352.265 210.921L352.261 211.087L352.258 211.174L352.262 211.014L352.265 210.921ZM369.407 192.97C370.297 195.305 371.822 200.868 370.351 203.164C368.388 206.228 366.919 202.794 366.345 200.594C365.442 197.13 365.507 193.53 364.2 190.178C366.195 185.934 368.281 190.014 369.407 192.97ZM89.7199 189.711C89.7199 192.161 85.98 192.912 83.9587 193.926C82.4701 194.672 80.7251 196.853 79.7733 195.114C78.1742 192.191 87.7534 189.711 89.7199 189.711ZM167.757 40.7393C169.465 45.8079 170.708 51.6222 169.988 56.9993C169.617 59.7628 168.592 62.4671 167.666 65.0857C167.094 66.7025 164.684 70.5702 165.33 72.3253C167.99 71.7732 172.362 72.6945 174.515 71.2145C176.964 69.5319 176.741 66.0172 180.601 65.7822C186.525 65.4215 191.296 70.6771 191.71 76.5643C191.924 79.6114 189.679 82.8328 187.398 84.6325C186.169 85.6029 185.001 85.9104 183.65 86.5187C182.753 86.9225 182.489 86.9049 182.43 86.8842L182.428 86.8827L182.431 86.887C182.469 86.9385 182.535 87.1759 182.143 88.0722C181.656 89.186 181.795 90.9512 181.651 92.1415C181.44 93.8864 180.74 96.0654 180.97 97.7845C181.217 99.6363 181.137 99.8328 183.144 99.1729C185.451 98.4146 188.411 95.2256 190.144 93.5086C191.843 91.8244 193.526 88.213 195.968 91.1031C197.84 93.3196 197.836 98.8826 197.55 101.631C196.886 108.018 189.606 113.223 184.513 116.256C180.922 118.395 181.437 119.796 181.663 123.832C181.846 127.107 182.361 130.407 182.797 133.656C183.323 137.581 184.584 137.641 186.512 134.73C187.987 132.502 190.401 128.852 193.57 130.13C196.716 131.399 196.446 135.476 197.15 138.143C198.135 141.874 197.819 144.682 194.643 147.409C193.201 148.648 188.554 150.663 188.158 152.671C187.966 153.647 190.22 156.701 190.758 157.744C191.881 159.924 193.058 162.075 194.519 164.052C195.013 160.732 197.921 157.917 199.74 155.269C201.936 152.072 204.621 149.822 207.771 147.504C208.925 146.655 211.835 145.515 210.472 144.042C209.289 142.762 208.057 143.707 206.885 141.655C204.92 138.217 204.639 132.68 204.485 128.806C204.347 125.346 204.221 120.492 206.278 117.491C208.783 113.838 211.291 113.699 215.045 115.256C217.974 116.471 219.51 121.195 221.077 124.015C223.727 128.782 223.779 132.832 223.779 138.106C226.616 136.506 229.727 135.89 232.785 134.942C234.896 134.287 238.619 133.862 240.233 132.284C238.501 131.33 237.576 129.258 237.936 127.301C238.526 124.096 240.173 125.491 242.615 125.067C243.71 124.877 244.502 124.051 245.604 123.893C246.731 123.732 247.943 124.18 249.064 124.354C251.827 124.781 254.518 125.431 257.262 125.888C255.734 123.851 254.192 121.079 251.733 120.311C248.77 119.385 245.207 119.236 242.112 118.463C238.12 117.466 231.239 111.14 237.084 107.232C239.293 105.755 242.196 107.628 244.288 105.648C246.271 103.771 245.685 99.8693 246.217 97.3413C247.443 91.5154 250.925 86.2508 256.591 84.0029C258.535 86.0755 253.002 91.1882 252.252 93.2973C251.805 94.554 251.463 94.4152 251.924 95.4581C252.244 96.1834 253.812 97.0035 254.491 97.5581L255.059 98.022C256.576 99.2568 258.12 100.459 259.904 101.298C259.698 98.6957 259.797 95.3821 262.703 94.2415C265.2 93.2609 268.4 95.836 269.228 98.1345C270.074 96.9113 271.652 94.5484 271.653 92.9939C272.454 91.8376 272.121 91.245 270.655 91.2161C270.035 90.9588 269.403 90.7359 268.76 90.547C266.031 89.4757 263.956 88.2768 263.077 85.261C262.42 83.0086 262.275 80.6452 261.503 78.4196C261.904 77.2627 261.493 76.5384 260.272 76.2467C259.89 75.9726 259.51 75.6991 259.129 75.4251C257.867 74.4982 256.568 73.5247 255.394 72.4884C254.47 71.6719 253.608 69.9791 252.677 69.3516C252.468 68.9155 252.184 68.532 251.826 68.2023C251 68.7098 250.172 69.2123 249.341 69.7102C246.461 71.4688 243.714 73.0303 240.222 72.7563C237.495 72.5421 233.454 71.6096 230.912 70.5955C228.134 69.4878 226.224 66.3363 224.51 64.0388C219.828 67.5291 215.942 65.6576 214.21 60.242C213.437 57.8259 213.003 55.265 212.784 52.7421C212.605 50.6801 213.219 48.8541 211.639 47.7306C209.665 46.3276 205.331 46.2476 203.001 45.8738C200.446 45.4635 197.432 44.7306 194.831 45.1201C195.972 49.4031 197.671 54.3381 194.443 57.8021C191.254 61.2251 189.649 62.9736 185.491 59.2639C182.312 56.4259 179.691 52.5496 177.368 48.9914C176.15 47.1254 175.608 44.6926 174.377 42.9244C172.959 40.8892 170.141 41.1045 167.757 40.7393ZM20.4853 144.209L20.4843 144.22L20.4851 144.343L20.4858 144.468L20.4853 144.209ZM163.739 41.6078C162.684 41.5872 160.183 42.0562 159.137 42.2649C156.294 42.8332 153.469 43.2951 150.49 43.7702C143.812 44.8344 137.167 46.2131 130.52 47.405C124.421 48.4985 117.654 49.9917 111.856 52.3115C105.52 54.8466 99.3689 57.3118 93.3355 60.5271C87.2854 63.7511 82.0903 67.9526 76.3068 71.5098C65.4651 78.1775 54.4926 85.0346 43.8592 92.1146C37.0965 96.617 29.8811 100.515 23.3227 105.271C19.9436 107.721 16.6543 110.281 13.4353 112.937C11.0664 114.89 6.76689 117.582 6.1369 120.846C9.31172 120.846 13.6072 115.302 16.1956 113.566C18.0805 112.303 20.1904 111.282 22.1494 110.131C23.2735 109.47 26.866 106.031 28.0885 106.013C29.8518 105.987 30.1097 108.505 29.6703 109.643C29.1006 111.118 27.4215 112.329 26.3059 113.386C22.6694 116.83 19.6532 121.364 17.2351 125.743C21.6831 124.108 25.3718 118.742 28.5345 115.304C30.206 113.486 38.7472 105.65 38.14 113.074C37.9155 115.82 35.9323 117.92 34.5496 120.192C33.0544 122.649 31.5147 125.141 30.1994 127.697C27.5279 132.887 25.5092 138.225 23.9142 143.851C26.6805 142.762 27.4037 139.716 28.6946 137.332C30.0089 134.906 31.5461 132.561 33.022 130.231C36.1538 125.286 38.8744 120.086 42.1998 115.26C43.513 113.353 49.3806 103.278 51.7384 104.698C53.3264 105.655 53.7962 110.155 54.2726 111.735C55.0268 114.234 56.1885 116.853 58.7009 117.985C58.8159 112.88 58.6405 107.782 58.7221 102.691C58.787 98.6836 60.9563 97.5399 63.6932 94.7429C70.0393 88.2571 78.1537 84.0733 85.6858 79.1814C89.038 77.0044 92.1414 74.1715 95.8438 72.3587C100.007 70.3205 104.053 67.9688 108.118 65.6854C116.66 60.8894 126.244 59.075 135.96 59.9572L136.371 59.9962L136.337 59.9926L136.373 59.9962L136.389 59.9978C145.737 58.6885 156.219 60.4988 164.824 64.1284C166.709 57.6344 167.412 50.8001 165.923 44.1349C165.487 42.1798 165.561 41.6454 163.739 41.6078ZM248.476 138.896C248.08 138.917 247.683 138.938 247.281 138.959C247.676 138.938 248.076 138.917 248.476 138.896ZM435.822 31.0659C433.104 33.5256 429.547 35.5658 426.545 37.6161C423.788 39.4988 421.223 41.6414 418.501 43.5231C411.427 48.4119 404.965 54.1932 398.111 59.4407C385.238 69.2963 371.823 78.1902 357.094 85.0615C350.149 88.3011 343.004 91.1214 335.869 93.8965C328.916 96.6008 322.362 100.302 314.678 100.329C310.738 100.343 306.579 100.449 302.665 99.8556C298.444 99.2149 294.043 96.6894 290.196 94.9131C288.387 94.0779 286.541 93.2816 284.802 92.3102C283.203 91.4172 281.046 89.1323 279.355 88.837C275.537 88.1699 275.146 96.0067 274.159 98.7433C273.823 99.6738 272.687 101.296 272.674 102.209C272.649 103.926 272.387 103.049 273.921 104.159C275.585 105.364 277.89 106.345 279.738 107.293C283.235 109.087 286.966 110.687 290.568 112.179C294.427 113.776 298.157 114.83 302.334 115.282C303.957 115.458 305.497 115.518 307.033 115.538L307.544 115.543L307.563 115.535C308.291 115.224 309.021 115.019 309.762 115.537L309.189 115.546C310.438 115.545 311.706 115.541 313.036 115.573C312.372 115.556 311.709 115.541 311.045 115.525C311.717 115.206 312.382 115.139 313.036 115.573C322.797 114.498 331.368 108.89 340.535 105.9C349.878 102.853 359.578 98.4739 368.454 93.8798C376.878 89.5183 385.322 85.0706 393.978 81.0732C398.944 78.7797 404.224 74.0297 409.904 75.8248C412.523 76.6524 414.863 78.2682 417.578 78.8294C420.702 79.4747 423.732 79.5851 426.823 80.512C426.63 79.076 422.555 76.9203 421.612 75.4302C420.983 74.4359 420.894 73.3064 420.371 72.3253C419.894 71.4282 419.155 71.3523 418.969 70.2947C418.252 66.2218 424.957 61.9535 427.493 59.6823C435.579 52.4382 445.084 46.6538 453.14 39.2101C448.287 39.2101 442.425 45.4078 438.792 48.2377C436.349 50.1411 433.929 52.0476 431.354 53.7708C430.649 54.2429 427.376 56.7475 426.478 56.4669C423.957 55.6808 426.358 51.2858 427.271 50.3022C429.057 48.3759 431.464 46.8275 433.516 45.2001C437.834 41.7741 441.779 38.1206 445.44 33.9156C441.828 34.1319 436.849 40.1006 434.294 42.47C431.502 45.0593 427.807 48.572 424.177 49.9304C422.303 50.6319 421.373 50.44 421.232 48.1678C421.073 45.577 423.091 44.2124 424.836 42.6777C428.313 39.6174 433.89 35.3394 435.822 31.0659ZM229.671 97.7455C230.154 102.014 227.004 107.296 222.28 107.472C217.219 107.66 216.925 101.725 217.106 98.1218C217.203 96.187 216.966 95.0463 218.302 93.7091C218.856 93.155 220.199 92.9175 220.857 92.3831C221.704 91.6947 222.274 90.6924 223.106 89.9756C227.394 86.2817 230.181 94.322 229.671 97.7455ZM210.596 68.2607C212.23 69.2762 214.013 71.8812 214.795 73.5623C216.183 76.5452 217.275 79.3983 217.968 82.6056C217.205 86.0529 213.877 95.0986 208.572 92.9546C203.065 90.7295 202.926 83.7422 202.902 79.0195C202.885 75.5803 204.783 64.6477 210.596 68.2607ZM246.68 84.133C246.761 87.2699 242.707 90.6903 240.218 92.0169C236.167 94.1766 235.349 88.7636 235.619 85.8354C235.921 82.5629 237.236 80.7516 240.252 79.3597C244.729 77.2926 245.746 80.3373 246.68 84.133ZM182.424 86.8816L182.428 86.8827L182.427 86.8817C182.416 86.8698 182.409 86.8749 182.424 86.8816ZM270.366 76.6236L270.421 76.6377L270.42 76.6371L270.366 76.6236ZM237.746 34.0792C236.243 34.5553 233.979 37.4399 232.831 38.5927C232.12 39.3054 230.902 41.4915 229.889 41.6176C228.382 41.8055 228.52 41.0943 227.495 39.8686C223.637 35.2487 219.556 35.2654 217.34 40.872C218.631 41.5117 219.998 41.6287 221.411 41.5796C221.891 41.5634 223.734 41.0128 224.089 41.2473C226.096 42.5759 223.156 43.7241 222.753 44.4049C222.447 44.9214 222.297 45.3809 222.178 45.7926L222.188 46.0195L222.187 46.0094V46.0063L222.186 45.9836L222.185 45.976L222.185 45.9643L222.184 45.9506L222.183 45.9304L222.182 45.9106L222.182 45.9025L222.181 45.8883V45.8868L222.179 45.8362L222.178 45.823L222.177 45.7956L222.152 45.8808C221.878 46.8385 221.718 47.5324 219.986 48.0852C218.24 48.6429 216.773 48.1551 215.036 47.6091C215.257 51.0267 215.248 57.1168 217.642 59.923L217.775 60.0725C218.451 60.3815 219.126 60.69 219.802 60.9989C219.71 61.0062 219.619 61.0109 219.529 61.0122C220.69 61.0345 222.073 60.5156 222.898 60.3402C222.541 58.6429 220.599 52.8854 221.477 51.6551C223.137 49.3287 223.865 52.7958 224.278 54.3639C225.251 58.0554 227.372 62.9044 230.709 65.2239C230.676 65.1721 230.645 65.1156 230.617 65.0543C231.412 65.1951 232.264 65.2301 232.66 66.1307C232.422 66.0316 232.161 65.977 231.903 65.9154L231.904 65.9159C235.074 67.3979 241.009 69.8621 244.183 68.2058C248.574 65.9144 252.116 62.1191 255.823 58.9382C253.268 57.677 252.919 55.7208 254.904 53.6715C259.114 58.181 261.689 48.5051 263.042 45.5532C260.452 45.3247 258.129 46.8822 255.479 46.3519C253.321 45.9199 250.718 45.1606 248.868 43.9475C246.397 42.3262 244.231 39.9856 242.108 37.9585C240.836 36.7449 239.111 33.6461 237.746 34.0792ZM159.994 66.3738C160.114 66.8666 160.231 67.3478 160.348 67.83C161.055 66.4948 161.055 66.4948 159.994 66.3738ZM241.484 65.5673C240.434 65.4518 236.273 64.7082 238.951 63.5093C240.319 62.8969 241.613 64.3116 241.484 65.5673ZM253.996 50.5791C254.578 51.9482 252.256 54.4012 251.604 55.5779C250.583 57.4221 248.803 65.1332 245.921 64.3521C242.753 64.344 243.278 61.3283 245.019 59.8599C245.626 59.3478 246.291 59.3235 246.894 58.6706C247.417 58.1033 247.741 56.9662 248.089 56.2718C248.943 54.5714 249.714 52.6006 251.064 51.23C252.15 50.1288 253.294 48.9319 253.996 50.5791ZM136.371 59.9962L136.389 59.9978L136.373 59.9962H136.371ZM135.276 59.8878L135.63 59.923L136.265 59.9855L135.684 59.9284L135.276 59.8878ZM134.581 59.8189L134.98 59.8587L135.164 59.8766L134.835 59.8443L134.581 59.8189ZM238.681 48.7399C240.219 48.9192 239.216 49.6531 240.005 50.307C240.533 50.7444 240.615 50.9605 240.571 51.0597L240.564 51.0709L240.603 51.0686C240.813 51.0567 241.196 51.0641 241.863 51.1265C243.326 51.2633 247.827 49.952 244.967 52.8441C244.345 53.4737 240.6 55.2328 239.766 54.8312C237.907 53.9362 238.696 50.2918 238.681 48.7399ZM240.564 51.0709C240.191 51.1004 240.485 51.1966 240.563 51.0737L240.564 51.0709ZM117.792 50.6591C117.393 50.6702 116.993 50.6814 116.589 50.692C116.987 50.6804 117.389 50.6697 117.792 50.6591ZM222.189 46.0545L222.192 46.1076L222.191 46.1036L222.189 46.0605V46.0545ZM222.188 46.0337L222.188 46.0351L222.188 46.0378L222.188 46.0337ZM222.179 45.8311V45.8362L222.18 45.8493L222.179 45.8311ZM222.178 45.8058L222.178 45.823L222.179 45.8265L222.178 45.8058ZM180.738 37.0761L180.921 37.1004L181.085 37.1216L180.738 37.0761ZM278.459 28.7141L278.461 28.7323L278.462 28.7581L278.462 28.7561L278.459 28.7141ZM278.459 28.705V28.7141V28.71V28.705ZM176.479 36.8436L176.433 36.8637C177.308 36.4707 178.182 36.5355 179.055 36.8693C178.508 36.868 177.961 36.867 177.415 36.8658C179.303 36.9783 181.187 37.1537 183.063 37.451C191.198 38.7406 200.691 39.4183 208.455 42.661C208.42 42.6224 208.385 42.5819 208.351 42.5402C209.043 42.3933 209.567 42.6638 209.986 43.1977C209.912 43.2193 209.841 43.2351 209.771 43.2454C210.653 43.6583 211.509 44.1096 212.334 44.6035C213.587 41.9119 211.245 42.7233 209.068 41.7184C206.662 40.6086 204.767 39.2218 202.969 37.3315C201.431 35.7157 200.116 33.6993 200.652 31.2918C200.93 30.0468 202.318 29.552 202.565 28.6398C202.649 28.3293 201.798 27.2945 201.763 26.8487C201.678 25.782 201.676 24.9645 201.922 23.9145C203.171 18.5896 202.632 11.7552 208.677 9.47087C209.986 8.97703 209.957 9.52659 210.93 8.49787C211.87 7.50308 212.22 5.85135 213.296 4.77805C215.353 2.72567 217.924 1.12611 220.772 0.495003C223.758 -0.167007 226.287 0.85969 229.157 0.758894C232.271 0.649488 234.596 -0.547396 237.851 0.303541C240.347 0.95542 240.545 1.973 242.437 3.09492C244.363 4.23761 248.045 3.30563 250.501 4.0583C251.79 4.45338 252.584 5.16807 253.685 5.85895C254.353 6.27783 254.27 6.5007 254.97 6.79143C255.335 6.94237 256.157 6.76054 256.587 6.85424C259.574 7.50713 259.841 11.0208 261.743 11.7096C263.207 12.2405 263.896 11.2123 265.503 12.3428C266.411 12.9815 267.308 14.1743 267.788 15.1661C268.024 15.6528 268.253 17.2904 268.457 17.534C269.105 18.3039 268.842 17.8855 269.471 18.3176C270.765 19.206 272.286 19.1999 273.705 20.6962C275.631 22.7263 277.926 24.3349 278.383 27.2661C278.461 27.7634 278.477 28.221 278.458 28.6609L278.459 28.705L278.456 28.6614L278.436 28.9871C278.368 29.8474 278.188 30.659 278.11 31.5942C278.023 32.6301 277.886 32.6336 278.104 33.3761C278.25 33.8761 279.111 34.5497 279.318 35.2872C280.949 41.07 271.564 47.5838 266.738 44.331C264.767 48.496 263.346 52.8788 261.451 57.0661C260.414 59.3606 254.953 64.7281 255.348 66.3596C255.673 67.7039 258.78 68.608 259.864 69.2558C261.829 70.4309 263.732 71.8486 265.617 73.1468C266.982 74.0872 268.3 75.078 269.625 76.0543L270.42 76.6371L270.525 76.664C271.358 76.8965 271.988 77.3992 272.477 78.0883C273.569 78.8292 274.69 79.5303 275.868 80.1585C277.681 81.1254 278.164 81.3133 278.939 83.2426C279.734 85.2165 278.743 84.5271 280.474 85.7883C283.838 88.2388 288.962 89.3045 292.772 90.9709C301.224 94.6659 309.504 96.6043 318.796 94.9977C327.14 93.5557 334.936 89.5547 342.744 86.4311C350.475 83.3388 358.177 79.9554 365.505 76.0279C372.436 72.3126 379.296 68.3826 385.692 63.7298C389.275 61.1223 393.063 58.7994 396.508 56.0126C399.892 53.2749 403.046 50.2374 406.482 47.5853C413.215 42.3885 420.317 37.413 427.425 32.704C429.45 31.3623 431.439 29.9643 433.418 28.5562C434.611 27.7088 437 25.2411 438.576 25.5465C443.496 26.4977 438.568 32.8509 437.738 34.7098C440.168 33.4121 442.15 31.495 444.679 30.2991C445.973 29.6872 449.548 27.5229 450.915 28.4346C454.124 30.5746 446.548 37.6298 445.329 39.2674C447.359 38.11 454.195 33.5281 455.854 37.2783C457.591 41.2043 451.274 45.8581 448.973 48.0457C442.185 54.4986 434.344 59.5805 427.438 65.8435C426.485 66.7071 423.364 68.6105 423.599 70.167C423.818 71.6212 426.688 73.3008 427.715 74.2662C429.736 76.1636 436.148 82.3385 432.065 85.453C430.624 86.5516 426.516 85.6424 424.794 85.4606C422.269 85.1947 419.783 84.989 417.279 84.5712C413.599 83.9563 409.99 81.0717 406.305 80.9628C402.162 80.8407 397.702 84.5033 394.138 86.2705C389.951 88.3457 385.929 90.6437 381.762 92.7635C373.808 96.81 366.215 101.344 358.007 104.991C349.007 108.989 339.356 111.576 330.467 115.825C321.421 120.148 312.701 121.522 302.794 121.217C293.123 120.919 282.785 114.517 275.131 109.034C274.689 108.714 274.246 108.394 273.805 108.075C272.984 106.823 272.268 106.791 271.657 107.977C270.414 108.18 269.9 108.373 268.419 108.269C266.001 108.1 264.792 107.556 262.573 106.736C257.544 104.877 253.745 103.428 250.19 99.0893C247.859 105.146 253.734 111.536 256.879 116.276C258.612 118.888 260.584 121.379 262.077 124.14C263.29 126.383 263.728 129.867 266.049 130.852C267.436 131.441 268.293 130.467 269.228 131.864C269.838 132.776 269.17 133.823 269.05 134.594C268.745 136.552 267.799 133.792 268.477 136.68C268.692 137.593 269.976 139.332 270.403 140.17C273.315 145.88 275.69 151.855 278.181 157.762C280.659 163.638 283.116 169.458 285.544 175.345C286.591 177.886 288.061 180.228 289.06 182.796C290.278 185.926 291.027 189.196 292.187 192.351C293.988 197.249 294.333 203.727 292.847 208.791C291.392 213.749 285.072 218.847 280.034 218.529C282.366 223.195 285.012 227.39 287.442 231.973C289.719 236.267 291.311 240.853 293.674 244.992C296.363 249.703 298.713 254.731 301.411 259.346C303.69 263.244 305.119 267.684 307.26 271.645C312.141 280.675 316.846 290.064 322.078 299.024C325.121 304.236 327.864 309.599 330.952 314.793C332.604 317.571 334.291 320.325 335.973 323.084C336.944 324.677 338.042 328.177 339.865 328.948C339.34 329.495 337.66 330.75 337.599 331.548C337.439 333.672 339.587 333.084 340.791 332.791C343.847 332.048 346.791 331.268 349.746 330.208C355.403 328.179 360.788 325.306 366.509 323.485C372.45 321.593 378.048 318.294 384.213 316.888C387.018 316.248 396.244 312.316 397.058 315.614C397.212 316.237 396.81 317.737 396.816 318.493C396.827 319.83 397.178 321.024 396.987 322.414C396.621 325.077 395.158 327.736 393.733 329.958C390.32 335.278 386.494 340.493 381.995 344.941C374.282 352.567 367.31 362.795 357.792 368.239C355.904 369.32 354.114 371.235 351.979 371.803C349.607 372.434 347.593 371.641 345.473 371.552C344.307 371.503 344.243 372.152 342.838 371.623C341.684 371.188 340.2 369.784 339.257 369.041C336.879 367.165 334.871 364.79 332.908 362.491C331.172 360.458 329.333 356.576 326.984 355.277C325.679 354.556 325.75 355.713 324.578 354.109C323.932 353.222 323.873 352.317 323.074 351.428C322.221 350.48 321.683 350.345 321.119 349.201C320.724 348.401 320.709 347.622 320.199 346.8C318.504 344.068 315.94 341.724 314.123 339.021C311.407 334.981 307.918 331.489 305.06 327.565C301.639 322.871 297.835 318.195 294.124 313.734C286.976 305.139 280.402 295.66 273.633 286.579C266.31 276.757 259.472 266.272 253.365 255.638C250.093 249.938 246.134 244.422 242.697 238.788C239.338 233.281 236.244 227.51 232.315 222.4C231.557 222.999 232.838 225.173 231.906 226.064C230.933 226.997 226.375 227.034 225.131 227.249C220.883 227.983 216.359 228.798 212.041 228.962C203.15 229.299 194.383 231.105 185.421 231.494C183.418 231.581 181.83 231.264 179.898 230.862C177.001 230.258 176.458 229.912 175.864 232.758C174.961 237.089 173.894 241.721 173.495 246.109C173.082 250.643 173.008 255.181 172.945 259.734C172.915 261.904 172.856 264.076 172.866 266.245C172.881 269.4 173.74 272.478 173.576 275.627C173.367 279.641 172.662 283.131 168.526 284.262C166.212 284.895 166.166 284.572 164.531 283.301C162.812 281.965 160.542 280.759 159.094 279.176C153.712 273.292 149.448 265.05 147.824 257.184C145.984 248.27 148.461 238.66 149.364 229.797C149.743 226.071 149.889 220.084 152.513 217.125C155.315 213.964 161.038 214.069 164.804 214.027C165.665 214.017 166.329 213.93 166.903 213.778C166.773 213.766 166.643 213.759 166.514 213.763L167.248 213.676C168.276 213.337 169.061 212.774 170.328 212.076C172.109 211.094 174.687 210.597 176.611 209.857C181.842 207.845 187.349 206.829 192.647 205.043C196.932 203.598 201.188 202.749 205.539 201.697C208.723 200.926 212.044 200.779 215.235 200.236C214.871 200.193 214.506 200.15 214.15 200.199C214.906 199.706 215.728 199.975 216.527 199.989C217.303 199.825 218.068 199.628 218.819 199.383C213.816 190.295 209.246 181.03 203.701 172.245C202.489 174.457 200.434 174.497 198.029 173.741C196.682 173.317 196.122 171.988 194.862 171.515C194.077 171.219 193.608 172.115 192.785 171.477C192.306 171.106 192.012 169.796 191.732 168.673C187.111 164.011 184.923 158.724 182.785 152.567C184.356 155.484 185.79 158.487 187.416 161.373C187.784 162.028 188.255 162.692 188.757 163.363L188.612 163.148C187.943 162.157 187.293 161.151 186.722 160.077C181.676 150.594 178.985 141.292 177.339 130.712C175.867 121.246 175.566 111.252 175.889 101.683L175.887 101.699L175.889 101.666L175.889 101.658C175.912 100.99 175.944 100.328 175.984 99.67C176.236 95.5851 176.833 91.6629 177.783 87.6224C178.155 86.0431 178.931 83.7182 178.964 82.149C178.985 81.1963 178.71 76.5364 178.4 76.2766C177.2 75.2696 172.531 76.0537 171.213 76.1899C168.813 76.4386 166.428 76.816 164.029 77.0677C163.547 77.1143 163.064 77.1604 162.582 77.2065C161.655 76.9695 160.979 77.2318 160.554 77.9936C159.292 78.2155 160.887 79.2609 159.129 78.2378C157.087 77.05 157.139 72.6302 157.131 70.6254C157.128 69.8672 157.689 66.66 157.166 66.1008C156.763 65.6697 154 65.8425 153.309 65.7857C150.684 65.572 148.043 65.2544 145.41 65.149C140.214 64.9404 134.94 65.07 129.744 65.0928C120.509 65.1323 111.763 69.3343 104.049 74.0783C100.487 76.269 96.5564 77.7946 93.0395 80.0308C89.5793 82.2316 86.5403 84.9343 83.1405 87.2461C78.3869 90.4776 73.4047 93.1859 68.9962 96.8849C66.8852 98.6557 64.0824 100.426 62.5361 102.771C60.9826 105.124 62.0287 107.788 61.9639 110.488C61.8929 113.413 62.0779 116.515 61.5761 119.382C61.4023 120.376 61.2482 122.271 60.3319 122.921C58.935 123.912 59.2868 123.188 58.0891 122.527C52.9077 119.663 51.9873 114.303 50.4932 109.192C41.9297 120.682 36.2374 133.952 28.1397 145.828C26.8994 147.647 24.7383 151.501 22.1347 149.634C20.6072 148.539 20.3183 146.433 20.4723 144.372L20.4843 144.22L20.4836 143.888L20.4823 143.464L20.4834 143.582C20.484 143.735 20.4845 143.889 20.485 144.042L20.4853 144.209L20.4992 144.058C20.6299 142.695 20.938 141.376 21.1909 140.409C22.1747 136.654 23.0353 132.814 24.8057 129.336C25.6932 127.592 26.754 125.941 27.6541 124.205C28.1148 123.318 29.5436 121.554 29.4807 120.557C29.051 121.102 28.6222 121.647 28.1924 122.192C26.1711 123.167 24.6298 126.322 22.9603 127.891C21.4413 129.319 19.716 130.741 18.0759 132.104C15.0668 134.603 12.4531 137.318 9.90269 140.361C8.35481 142.209 6.39335 143.965 5.01425 140.58C3.96003 137.993 5.61333 135.67 6.82214 133.46C8.40245 130.57 9.99139 127.954 12.0902 125.418C13.8682 123.271 16.3648 120.982 17.0617 118.275C13.5185 120.731 10.3406 123.597 6.50942 125.648C3.4608 127.28 -1.46311 127.191 0.415732 122.297C1.78013 118.745 5.98485 114.428 8.76231 111.841C11.6487 109.152 14.9629 106.651 18.0627 104.186C25.2694 98.4556 33.3053 93.7481 40.9064 88.5443C47.847 83.7927 54.9442 79.3075 61.8392 74.6562C77.322 64.211 92.48 52.5324 110.42 46.5378C118.751 43.754 127.514 41.5847 136.153 40.0894C140.611 39.318 145.376 38.2158 149.886 38.0168C151.549 37.9433 153.154 38.2569 154.798 38.1576C156.508 38.0548 158.621 38.5051 160.303 38.1156C162.073 37.7063 163.634 35.816 165.394 35.9315C165.93 35.967 166.429 36.4889 166.963 36.6144L167.098 36.6371C167.098 36.6372 167.098 36.6372 167.098 36.6371C167.828 36.5591 168.544 35.9703 169.232 36.5918C169.232 36.5918 169.231 36.592 169.232 36.5918C171.673 36.6625 174.111 36.696 176.54 36.8178L176.479 36.8436Z" fill="white"/>
</svg>
