<svg width="79" height="94" viewBox="0 0 79 94" fill="none" xmlns="http://www.w3.org/2000/svg">
<path d="M35.6848 13.0725C42.8201 19.6997 64.7415 38.3148 64.7415 38.3148C64.7415 38.3148 38.7923 28.3761 27.4619 22.3892C16.1315 16.4023 28.5495 6.44538 35.6848 13.0725Z" fill="white"/>
<path d="M21.8513 49.5231C32.8064 47.6105 64.8761 40.529 64.8761 40.529C64.8761 40.529 37.9159 57.2657 24.6458 63.4361C11.3758 69.6064 10.8962 51.4358 21.8513 49.5231Z" fill="white"/>
<path d="M40.7046 73.5704C47.2358 66.3472 65.5563 44.179 65.5563 44.179C65.5563 44.179 55.9652 70.2586 50.1303 81.6681C44.2954 93.0775 34.1734 80.7936 40.7046 73.5704Z" fill="white"/>
</svg>
