<svg width="22" height="22" viewBox="0 0 22 22" fill="none" xmlns="http://www.w3.org/2000/svg">
<path d="M16 1H6C3.23858 1 1 3.23858 1 6V16C1 18.7614 3.23858 21 6 21H16C18.7614 21 21 18.7614 21 16V6C21 3.23858 18.7614 1 16 1Z" stroke="white" stroke-width="2" stroke-linecap="round" stroke-linejoin="round"/>
<path d="M15.4528 10.4133C15.5762 11.2455 15.4341 12.0955 15.0466 12.8423C14.6591 13.5891 14.046 14.1947 13.2945 14.5729C12.5429 14.9512 11.6913 15.0829 10.8606 14.9492C10.03 14.8155 9.26259 14.4234 8.66767 13.8284C8.07275 13.2335 7.68056 12.4661 7.5469 11.6355C7.41323 10.8048 7.5449 9.95316 7.92316 9.20164C8.30142 8.45012 8.90702 7.83701 9.65382 7.44951C10.4006 7.06201 11.2506 6.91986 12.0828 7.04327C12.9318 7.16915 13.7177 7.56473 14.3245 8.17158C14.9314 8.77842 15.3269 9.56435 15.4528 10.4133Z" stroke="white" stroke-width="2" stroke-linecap="round" stroke-linejoin="round"/>
<path d="M16.9892 4.85332C17.02 5.06138 16.9845 5.27387 16.8876 5.46057C16.7907 5.64727 16.6375 5.79867 16.4496 5.89323C16.2617 5.9878 16.0488 6.02071 15.8411 5.9873C15.6335 5.95388 15.4416 5.85584 15.2929 5.70711C15.1442 5.55838 15.0461 5.36653 15.0127 5.15887C14.9793 4.9512 15.0122 4.73829 15.1068 4.55041C15.2013 4.36253 15.3527 4.20925 15.5394 4.11238C15.7261 4.0155 15.9386 3.97996 16.1467 4.01082C16.3589 4.04229 16.5554 4.14118 16.7071 4.29289C16.8588 4.4446 16.9577 4.64109 16.9892 4.85332Z" fill="white"/>
</svg>
