<svg width="49" height="50" viewBox="0 0 49 50" fill="none" xmlns="http://www.w3.org/2000/svg">
<path d="M24.5 44.6C35.3045 44.6 44.1 35.8045 44.1 25C44.1 14.1955 35.3045 5.4 24.5 5.4C13.6955 5.4 4.9 14.1955 4.9 25C4.9 35.8045 13.6955 44.6 24.5 44.6ZM24.5 49.5C10.976 49.5 0 38.524 0 25C0 11.476 10.976 0.5 24.5 0.5C38.024 0.5 49 11.476 49 25C49 38.524 38.024 49.5 24.5 49.5ZM26.95 25V34.8H22.05V25H14.7L24.5 15.2L34.3 25H26.95Z" fill="#121212"/>
<path d="M24.5 44.6C35.3045 44.6 44.1 35.8045 44.1 25C44.1 14.1955 35.3045 5.4 24.5 5.4C13.6955 5.4 4.9 14.1955 4.9 25C4.9 35.8045 13.6955 44.6 24.5 44.6ZM24.5 49.5C10.976 49.5 0 38.524 0 25C0 11.476 10.976 0.5 24.5 0.5C38.024 0.5 49 11.476 49 25C49 38.524 38.024 49.5 24.5 49.5ZM26.95 25V34.8H22.05V25H14.7L24.5 15.2L34.3 25H26.95Z" fill="white" fill-opacity="0.2"/>
</svg>
