<svg width="557" height="639" viewBox="0 0 557 639" fill="none" xmlns="http://www.w3.org/2000/svg">
<g filter="url(#filter0_i_1386_8140)">
<path d="M519.744 451.096C511.354 488.375 477.672 517.197 428.125 532.938C378.711 548.638 314.474 550.934 247.219 535.798C179.965 520.662 122.905 491.068 84.9805 455.713C46.9541 420.263 28.8673 379.791 37.2571 342.512C45.6468 305.232 79.3282 276.411 128.876 260.669C178.289 244.97 242.527 242.674 309.781 257.81C377.036 272.945 434.096 302.54 472.02 337.895C510.046 373.345 528.133 413.817 519.744 451.096Z" stroke="url(#paint0_radial_1386_8140)" stroke-width="10"/>
</g>
<circle cx="340.68" cy="271.975" r="66.3865" fill="url(#paint1_radial_1386_8140)"/>
<path fill-rule="evenodd" clip-rule="evenodd" d="M265.747 225.617C264.543 225.437 263.154 228.228 261.524 229.47C255.514 233.598 265.243 219.896 261.703 217.001C261.035 219.765 257.182 223.665 260.082 224.765C257.031 223.865 254.631 229.674 250.893 228.735C251.212 230.54 248.8 236.448 251.985 235.784C251.138 237.964 250.342 240.015 249.489 242.209C251.965 242.221 254.59 246.499 257.184 244.589C258.324 243.383 258.568 240.632 260.768 241.47C263.343 238.316 267.1 234.627 268.357 230.274C259.152 237.679 262.782 231.594 265.747 225.617ZM233.41 180.025C233.96 176.674 235.736 165.619 238.133 166.379C240.603 168.069 242.339 165.404 245.122 163.715C238.476 163.985 246.38 158.411 247.974 155.841C250.507 152.432 250.961 148.972 252.073 144.773C238.933 162.052 245.998 150.257 246.526 140.156C244.359 142.513 243.129 146.023 242.4 149.371C236.917 158.082 243.468 138.802 240.996 137.197C240.096 139.216 237.282 141.217 237.28 143.734C237.755 149.301 235.04 154.903 231.889 160.391C232.023 165.744 225.912 170.236 223.652 176.282C225.596 178.128 230.236 178.874 233.41 180.025ZM370.039 313.176C366.545 315.12 362.365 317.242 358.547 319.246C352.473 325.465 346.548 330.813 339.754 336.712C329.017 347.712 322.986 349.037 330.181 360.45C331.01 361.752 334.354 358.568 336.189 357.752C338.151 357.717 338.982 356.382 340.998 355.788C342.793 355.507 343.355 352.402 344.765 350.642C351.826 337.237 364.479 328.566 372.221 315.385C370.822 316.29 369.768 315.15 370.039 313.176ZM182.21 337.628C181.256 341.655 180.002 346.41 179.272 350.922C183.174 359.825 192.13 364.906 200.044 371.042C211.293 380.539 221.795 397.066 224.823 408.418C231.905 403.236 233.507 393.746 236.681 385.872C242.734 367.958 249.146 346.591 267.066 338.416C232.299 330.636 236.562 305.294 214.254 297.571C214.813 295.879 216.249 295.634 218.199 294.63C220.225 288.385 221.733 281.198 222.594 274.367C229.523 239.847 227.117 206.391 243.883 187.088C235.239 185.016 224.235 184.528 221.771 178.094C207.711 203.17 209.249 232.054 202.452 258.917C200.467 266.468 198.546 273.07 195.79 280.731C184.562 304.309 186.322 319.733 182.21 337.628ZM149.191 289.584C152.158 295.348 152.865 296.298 151.778 302.947C157.623 300.578 155.809 310.47 162.873 300.679C167.707 301.211 162.942 305.961 159.809 306.824C165.8 314.875 169.75 301.593 173.336 296.928C177.505 296.74 174.644 302.845 172.693 305.019C176.052 307.341 179.042 310.244 182.496 313.014C188.99 268.386 196.966 289.1 178.594 280.845C177.296 280.56 176.174 282.576 174.15 281.904C173.364 281.627 173.221 280.854 174 279.785C182.13 271.152 170.069 270.368 169.984 278.956C168.449 280.082 167.463 276.936 165.796 278.571C158.784 283.959 149.761 283.137 141.742 282.632C142.06 283.364 142.314 283.949 142.575 284.551C142.669 284.019 142.747 283.586 142.843 283.048C144.75 283.566 145.325 285.293 146.766 285.89C149.649 284.174 151.482 284.143 152.519 285.94C151.109 286.644 149.722 287.335 148.294 288.048C148.346 288.179 148.642 288.89 149.191 289.584ZM262.279 367.518C264.408 369.741 265.818 372.546 267.938 375.327C279.836 355.407 290.591 350.174 302.951 338.916C291.144 344.225 282.496 338.706 271.52 342.252C264.542 344.176 258.857 347.887 254.136 354.023C253.186 355.241 252.002 357.269 253.752 358.238C257.421 360.473 259.514 364.048 262.279 367.518ZM259.239 372.129C256.84 368.193 254.154 364.053 250.409 360.569C247.691 366.081 245.234 371.339 243.308 377.509C231.492 414.401 226.838 400.771 234.805 411.176C240.446 397.373 250.983 386.48 263.373 377.777L259.239 372.129ZM253.04 271.52C258.904 250.764 266.228 257.55 252.064 249.925C249.511 249.899 246.104 245.467 244.792 249.132C239.902 259.947 237.704 270.742 234.871 282.337C228.741 300.248 226.031 296.445 232.118 301.868C235.563 304.898 237.014 308.803 240.743 312.015C245.185 298.932 248.509 285.058 253.04 271.52ZM172.681 308.679C172.394 308.432 172.106 308.186 171.875 307.988C163.919 318.14 158.191 310.072 152.985 305.41C151.274 305.939 149.844 306.589 148.435 304.768C148.053 297.491 149.942 298.037 145.961 291.065C145.061 289.237 144.822 287.812 143.391 285.9C142.373 285.68 141.172 285.742 140.233 284.759C134.452 278.336 135.378 267.801 141.132 260.145C144.342 255.166 150.207 253.244 155.651 251.397C161.064 243.771 147.09 225.024 163.592 223.648C162.278 209.461 162.523 194.354 166.728 179.526C169.118 172 177.109 158.238 184.418 167.015C185.281 168.337 187.602 169.922 189.797 168.29C193.208 165.166 193.282 161.104 196.018 157.132C215.146 123.414 218.381 163.317 217.861 178.957C218.772 177.709 219.908 175.948 221.018 174.55C221.913 174.378 222.035 174.633 222.391 172.945C224.116 166.581 228.537 162.449 230.311 155.933C233.54 150.833 230.55 134.977 238.356 137.133C242.827 130.657 244.437 133.465 244.051 139.547C249.052 131.639 249.846 137.753 249.084 143.446C264.652 123.895 256.818 153.062 249.927 158.914C257.878 160.011 251.108 165.713 246.721 167.957C245.62 169.001 243.397 168.493 243.59 170.381C240.329 170.426 237.578 174.409 236.612 177.917C232.979 183.555 245.662 181.884 247.308 186.114C245.242 192.526 241.212 199.952 238.247 207.2C248.212 202.904 256.23 206.647 250.575 218.034C245.067 226.196 236.725 231.376 234.076 241.173C228.966 254.583 227.433 267.989 224.757 281.922C221.422 297.695 216.772 293.507 226.488 297.333C232.695 280.468 232.224 261.397 242.623 245.42C244.254 243.852 245.677 242.816 246.137 240.339C248.333 236.519 247.748 233.233 248.027 229.201C248.57 225.458 251.795 221.413 254.298 225.94C257.369 221.485 257.842 215.6 261.185 211.08C266.425 204.534 265.884 219.695 265.034 222.354C269.521 218.257 270.868 220.033 268.463 225.522C276.073 218.874 270.895 231.754 268.676 234.544C266.081 238.848 262.029 241.184 259.97 245.905C258.852 248.175 264.951 250.176 266.01 251.87C267.119 254.103 267.711 261.145 263.475 257.365C254.418 275.366 252.392 295.621 242.39 313.581C246.638 324.775 261.61 330.751 273.752 333.75C307.866 339.598 309.183 327.947 308.295 337.18C303.193 349.118 289.449 353.801 280.965 363.634C277.993 366.842 273.929 371.781 272.638 375.546C273.247 376.229 273.842 376.541 273.067 377.784C271.349 379.651 272.203 380.233 274.273 381.274C277.776 383.354 280.456 384.793 283.206 387.992C294.816 404.18 304.288 421.095 314.304 438.688C314.795 416.326 321.328 402.012 323.475 385.541C326.804 366.903 321.646 367.018 328.047 363.31C327.523 359.293 320.484 354.726 324.397 349.131C334.742 334.055 350.574 323.719 363.561 310.455C365.134 313.653 373.144 303.457 373.351 310.324C383.857 306.274 368.786 326.989 366.73 328.831C359.309 336.964 351.482 344.422 345.191 353.728C346.73 353.865 350.228 351.88 350.605 354.84C352.168 362.939 352.673 371.373 353.128 380.069C355.539 401.273 354.545 422.759 349.663 444.408C347.066 456.467 346.112 470.977 333.664 478.706C320.809 486.566 289.412 463.932 282.196 460.18C270.496 455.046 224.498 422.044 232.818 414.29C231.635 411.902 229.034 413.785 226.563 413.367C224.903 413.221 225.294 411.59 223.118 412.212C217.583 401.982 210.74 392.238 203.275 382.914C195.821 372.652 182.676 369.448 177.128 357.393C175.121 344.594 182.894 329.448 181.763 315.788C178.519 313.85 175.152 312.069 172.681 308.679Z" fill="white"/>
<path fill-rule="evenodd" clip-rule="evenodd" d="M425.065 407.156C435.376 401.38 437.128 402.83 446.931 404.329C458.256 404.544 469.466 407.015 481.283 405.316C462.819 402.99 453.095 386.905 442.303 387.96C436.886 388.669 432.635 391.876 427.741 395.077C416.53 400.923 422.251 399.63 425.065 407.156ZM425.773 409.07C425.227 411.023 427.732 409.406 427.667 411.428C423.66 415.811 417.485 418.28 412.35 422.003C394.23 433.25 375.846 442.765 355.265 447.491C361.308 406.584 352.254 417.075 375.26 410.369C382.422 409.691 388.692 407.064 395.897 404.452C403.499 401.776 410.664 400.59 417.206 394.649C418.991 393.732 418.367 397.587 420.269 396.007C426.562 391.914 432.181 387.284 439.39 384.496C445.055 382.758 450.478 383.568 454.775 387.311C465.239 393.922 474.466 400.648 488.169 401.991C497.253 410.978 463.46 411.589 459.806 410.059C440.598 409.626 434.173 404.807 425.773 409.07Z" fill="white"/>
<path fill-rule="evenodd" clip-rule="evenodd" d="M152.359 284.501C154.59 283.991 155.734 286.413 156.914 282.821C157.252 279.839 159.906 281.473 159.803 283.49C158.887 287.887 154.384 287.398 152.359 284.501Z" fill="white"/>
<circle cx="79.1561" cy="410.112" r="66.3865" fill="url(#paint2_radial_1386_8140)"/>
<circle cx="383.596" cy="517.403" r="66.3865" fill="url(#paint3_radial_1386_8140)"/>
<defs>
<filter id="filter0_i_1386_8140" x="30.2305" y="242.596" width="496.539" height="308.416" filterUnits="userSpaceOnUse" color-interpolation-filters="sRGB">
<feFlood flood-opacity="0" result="BackgroundImageFix"/>
<feBlend mode="normal" in="SourceGraphic" in2="BackgroundImageFix" result="shape"/>
<feColorMatrix in="SourceAlpha" type="matrix" values="0 0 0 0 0 0 0 0 0 0 0 0 0 0 0 0 0 0 127 0" result="hardAlpha"/>
<feMorphology radius="4" operator="dilate" in="SourceAlpha" result="effect1_innerShadow_1386_8140"/>
<feOffset dx="3" dy="6"/>
<feGaussianBlur stdDeviation="1.5"/>
<feComposite in2="hardAlpha" operator="arithmetic" k2="-1" k3="1"/>
<feColorMatrix type="matrix" values="0 0 0 0 0 0 0 0 0 0 0 0 0 0 0 0 0 0 0.25 0"/>
<feBlend mode="normal" in2="shape" result="effect1_innerShadow_1386_8140"/>
</filter>
<radialGradient id="paint0_radial_1386_8140" cx="0" cy="0" r="1" gradientUnits="userSpaceOnUse" gradientTransform="translate(112.161 494.518) rotate(-13.405) scale(475.603 813.611)">
<stop stop-color="#CF9239"/>
<stop offset="0.33125" stop-color="#BB4854"/>
<stop offset="0.7901" stop-color="#7026A6"/>
<stop offset="0.985733" stop-color="#290B87"/>
</radialGradient>
<radialGradient id="paint1_radial_1386_8140" cx="0" cy="0" r="1" gradientUnits="userSpaceOnUse" gradientTransform="translate(232.46 249.24) rotate(14.7362) scale(180.544)">
<stop offset="0.183687" stop-color="#CF9239"/>
<stop offset="0.54244" stop-color="#BB4854"/>
<stop offset="0.785979" stop-color="#9F3C72"/>
<stop offset="1" stop-color="#290B87"/>
</radialGradient>
<radialGradient id="paint2_radial_1386_8140" cx="0" cy="0" r="1" gradientUnits="userSpaceOnUse" gradientTransform="translate(-29.0631 387.377) rotate(14.7362) scale(180.544)">
<stop offset="0.183687" stop-color="#CF9239"/>
<stop offset="0.54244" stop-color="#BB4854"/>
<stop offset="0.785979" stop-color="#9F3C72"/>
<stop offset="1" stop-color="#290B87"/>
</radialGradient>
<radialGradient id="paint3_radial_1386_8140" cx="0" cy="0" r="1" gradientUnits="userSpaceOnUse" gradientTransform="translate(275.376 494.668) rotate(14.7362) scale(180.544)">
<stop offset="0.183687" stop-color="#CF9239"/>
<stop offset="0.54244" stop-color="#BB4854"/>
<stop offset="0.785979" stop-color="#9F3C72"/>
<stop offset="1" stop-color="#290B87"/>
</radialGradient>
</defs>
</svg>
