<svg width="23" height="18" viewBox="0 0 23 18" fill="none" xmlns="http://www.w3.org/2000/svg">
<path d="M22.002 0.0381929C21.0443 0.71367 19.9841 1.2303 18.862 1.56819C18.2597 0.875704 17.4593 0.384885 16.569 0.162119C15.6787 -0.0606467 14.7414 -0.00461146 13.884 0.322646C13.0266 0.649904 12.2904 1.23259 11.7749 1.99191C11.2595 2.75122 10.9897 3.65053 11.002 4.56819V5.56819C9.24459 5.61376 7.50323 5.22401 5.93296 4.43364C4.3627 3.64327 3.01227 2.47683 2.00195 1.03819C2.00195 1.03819 -1.99805 10.0382 7.00195 14.0382C4.94248 15.4362 2.48911 16.1371 0.00195312 16.0382C9.00195 21.0382 20.002 16.0382 20.002 4.53819C20.001 4.25965 19.9743 3.98179 19.922 3.70819C20.9426 2.70169 21.6628 1.43091 22.002 0.0381929Z" fill="white"/>
</svg>
