<svg width="23" height="16" viewBox="0 0 23 16" fill="none" xmlns="http://www.w3.org/2000/svg">
<path d="M21.5406 2.69002C21.4218 2.21543 21.1799 1.78059 20.8392 1.42943C20.4986 1.07826 20.0713 0.823204 19.6006 0.69002C17.8806 0.27002 11.0006 0.27002 11.0006 0.27002C11.0006 0.27002 4.12057 0.27002 2.40057 0.73002C1.92982 0.863204 1.50255 1.11826 1.16192 1.46943C0.821288 1.82059 0.57936 2.25543 0.460572 2.73002C0.145786 4.47557 -0.00819243 6.24633 0.000571645 8.02002C-0.0106491 9.80706 0.143339 11.5913 0.460572 13.35C0.591531 13.8099 0.838878 14.2282 1.17872 14.5645C1.51855 14.9008 1.93939 15.1438 2.40057 15.27C4.12057 15.73 11.0006 15.73 11.0006 15.73C11.0006 15.73 17.8806 15.73 19.6006 15.27C20.0713 15.1368 20.4986 14.8818 20.8392 14.5306C21.1799 14.1794 21.4218 13.7446 21.5406 13.27C21.8529 11.5376 22.0069 9.78035 22.0006 8.02002C22.0118 6.23297 21.8578 4.44872 21.5406 2.69002Z" fill="white"/>
<path d="M8.75 11.29L14.5 8.02L8.75 4.75V11.29Z" fill="#121212"/>
<path d="M8.75 11.29L14.5 8.02L8.75 4.75V11.29Z" fill="white" fill-opacity="0.09"/>
</svg>
